<svg xmlns="http://www.w3.org/2000/svg" viewBox="0 0 800 600">
  <!-- 背景 -->
  <rect width="800" height="600" fill="#f8f9fa" />
  
  <!-- 标题 -->
  <text x="400" y="30" font-family="Arial" font-size="24" text-anchor="middle" font-weight="bold">流调度仿真系统架构</text>
  
  <!-- BasicScene 核心仿真环境 -->
  <rect x="200" y="60" width="400" height="80" rx="5" fill="#e9ecef" stroke="#343a40" stroke-width="2" />
  <text x="400" y="100" font-family="Arial" font-size="18" text-anchor="middle" font-weight="bold">BasicScene</text>
  <text x="400" y="125" font-family="Arial" font-size="14" text-anchor="middle">核心仿真场景</text>
  
  <!-- 主要组件区域 -->
  <rect x="50" y="180" width="200" height="300" rx="5" fill="#e1fcf8" stroke="#0ca" stroke-width="2" />
  <text x="150" y="210" font-family="Arial" font-size="16" text-anchor="middle" font-weight="bold">Streams</text>
  <text x="150" y="230" font-family="Arial" font-size="14" text-anchor="middle">任务生成源</text>
  
  <rect x="300" y="180" width="200" height="300" rx="5" fill="#e0ecff" stroke="#47a" stroke-width="2" />
  <text x="400" y="210" font-family="Arial" font-size="16" text-anchor="middle" font-weight="bold">Network</text>
  <text x="400" y="230" font-family="Arial" font-size="14" text-anchor="middle">网络传输层</text>
  
  <rect x="550" y="180" width="200" height="300" rx="5" fill="#ffe8e8" stroke="#c44" stroke-width="2" />
  <text x="650" y="210" font-family="Arial" font-size="16" text-anchor="middle" font-weight="bold">Nodes</text>
  <text x="650" y="230" font-family="Arial" font-size="14" text-anchor="middle">任务处理节点</text>
  
  <!-- Streams 内部详情 -->
  <rect x="70" y="250" width="160" height="60" rx="5" fill="#ffffff" stroke="#0ca" stroke-width="1" />
  <text x="150" y="280" font-family="Arial" font-size="14" text-anchor="middle">DynamicSineWaveStream</text>
  <text x="150" y="300" font-family="Arial" font-size="12" text-anchor="middle">动态正弦波任务流</text>
  
  <rect x="70" y="330" width="160" height="70" rx="5" fill="#ffffff" stroke="#0ca" stroke-width="1" />
  <text x="150" y="355" font-family="Arial" font-size="12" text-anchor="middle">min_rate-max_rate</text>
  <text x="150" y="375" font-family="Arial" font-size="12" text-anchor="middle">动态变化的任务产生率</text>
  <text x="150" y="395" font-family="Arial" font-size="12" text-anchor="middle">每个流有自己的权重</text>
  
  <!-- Network 内部详情 -->
  <rect x="320" y="250" width="160" height="60" rx="5" fill="#ffffff" stroke="#47a" stroke-width="1" />
  <text x="400" y="280" font-family="Arial" font-size="14" text-anchor="middle">带宽矩阵</text>
  <text x="400" y="300" font-family="Arial" font-size="12" text-anchor="middle">[流, 节点]维度的矩阵</text>
  
  <rect x="320" y="330" width="160" height="60" rx="5" fill="#ffffff" stroke="#47a" stroke-width="1" />
  <text x="400" y="355" font-family="Arial" font-size="14" text-anchor="middle">波动机制</text>
  <text x="400" y="375" font-family="Arial" font-size="12" text-anchor="middle">带宽动态波动</text>
  
  <rect x="320" y="410" width="160" height="50" rx="5" fill="#ffffff" stroke="#47a" stroke-width="1" />
  <text x="400" y="435" font-family="Arial" font-size="14" text-anchor="middle">任务传输队列</text>
  
  <!-- Nodes 内部详情 -->
  <rect x="570" y="250" width="160" height="60" rx="5" fill="#ffffff" stroke="#c44" stroke-width="1" />
  <text x="650" y="280" font-family="Arial" font-size="14" text-anchor="middle">AdjustableNode</text>
  <text x="650" y="300" font-family="Arial" font-size="12" text-anchor="middle">可调节速度和质量</text>
  
  <rect x="570" y="330" width="160" height="70" rx="5" fill="#ffffff" stroke="#c44" stroke-width="1" />
  <text x="650" y="355" font-family="Arial" font-size="12" text-anchor="middle">speed_quality_pairs</text>
  <text x="650" y="375" font-family="Arial" font-size="12" text-anchor="middle">速度越高，质量越低</text>
  <text x="650" y="395" font-family="Arial" font-size="12" text-anchor="middle">节点有任务队列上限</text>
  
  <!-- 调度器区域 -->
  <rect x="200" y="500" width="400" height="80" rx="5" fill="#fff2cc" stroke="#d69e2e" stroke-width="2" />
  <text x="400" y="530" font-family="Arial" font-size="18" text-anchor="middle" font-weight="bold">TwoPhaseFlowSchedulerAgent</text>
  <text x="400" y="560" font-family="Arial" font-size="14" text-anchor="middle">任务调度决策器</text>
  
  <!-- 观测机制 -->
  <rect x="620" y="80" width="150" height="60" rx="5" fill="#e5d8ff" stroke="#805ad5" stroke-width="1" />
  <text x="695" y="105" font-family="Arial" font-size="14" text-anchor="middle">Observable</text>
  <text x="695" y="125" font-family="Arial" font-size="12" text-anchor="middle">状态观测机制</text>
  
  <!-- 流程箭头 -->
  <!-- 1. BasicScene 到各组件 -->
  <line x1="400" y1="140" x2="150" y2="180" stroke="#666" stroke-width="2" stroke-dasharray="5,5" />
  <line x1="400" y1="140" x2="400" y2="180" stroke="#666" stroke-width="2" stroke-dasharray="5,5" />
  <line x1="400" y1="140" x2="650" y2="180" stroke="#666" stroke-width="2" stroke-dasharray="5,5" />
  
  <!-- 2. 任务流动路径 -->
  <line x1="230" y1="300" x2="300" y2="300" stroke="#000" stroke-width="2" marker-end="url(#arrowhead)" />
  <line x1="500" y1="300" x2="570" y2="300" stroke="#000" stroke-width="2" marker-end="url(#arrowhead)" />
  
  <!-- 3. 调度器到各组件的控制 -->
  <line x1="250" y1="500" x2="150" y2="480" stroke="#d69e2e" stroke-width="2" marker-end="url(#arrowhead)" />
  <line x1="400" y1="500" x2="400" y2="480" stroke="#d69e2e" stroke-width="2" marker-end="url(#arrowhead)" />
  <line x1="550" y1="500" x2="650" y2="480" stroke="#d69e2e" stroke-width="2" marker-end="url(#arrowhead)" />
  
  <!-- 观察机制 -->
  <line x1="620" y1="110" x2="550" y2="110" stroke="#805ad5" stroke-width="2" stroke-dasharray="5,5" marker-end="url(#arrowhead)" />
  
  <!-- 箭头定义 -->
  <defs>
    <marker id="arrowhead" markerWidth="10" markerHeight="7" refX="9" refY="3.5" orient="auto">
      <polygon points="0 0, 10 3.5, 0 7" fill="#000" />
    </marker>
  </defs>
  
  <!-- 标签文本 -->
  <text x="260" y="290" font-family="Arial" font-size="12" text-anchor="middle">任务生成</text>
  <text x="530" y="290" font-family="Arial" font-size="12" text-anchor="middle">任务处理</text>
  <text x="200" y="490" font-family="Arial" font-size="12" text-anchor="middle">流量分配</text>
  <text x="550" y="490" font-family="Arial" font-size="12" text-anchor="middle">速度设定</text>
  
  <!-- 图例 -->
  <rect x="30" y="30" width="15" height="15" fill="#e1fcf8" stroke="#0ca" stroke-width="1" />
  <text x="50" y="43" font-family="Arial" font-size="12" text-anchor="start">Streams</text>
  
  <rect x="30" y="50" width="15" height="15" fill="#e0ecff" stroke="#47a" stroke-width="1" />
  <text x="50" y="63" font-family="Arial" font-size="12" text-anchor="start">Network</text>
  
  <rect x="30" y="70" width="15" height="15" fill="#ffe8e8" stroke="#c44" stroke-width="1" />
  <text x="50" y="83" font-family="Arial" font-size="12" text-anchor="start">Nodes</text>
  
  <rect x="30" y="90" width="15" height="15" fill="#fff2cc" stroke="#d69e2e" stroke-width="1" />
  <text x="50" y="103" font-family="Arial" font-size="12" text-anchor="start">Agent</text>
</svg>